<svg xmlns="http://www.w3.org/2000/svg" xmlns:xlink="http://www.w3.org/1999/xlink" fill="none" version="1.1" width="50" height="50" viewBox="0 0 50 50"><defs><clipPath id="master_svg0_72_1454"><rect x="0" y="0" width="50" height="50" rx="0"/></clipPath></defs><g clip-path="url(#master_svg0_72_1454)"><g><path d="M17.41798125,1.6446921875C12.42228125,3.3777721875,8.11390125,6.6672021875,5.12582125,11.0298921875C2.13770125,15.3924921875,0.6273642500000001,20.5983921875,0.81662635,25.8827921875C1.00588825,31.1672921875,2.88477125,36.2517921875,6.17730125,40.3895921875C9.46984125,44.5270921875,14.00248125,47.5001921875,19.10938125,48.8712921875C23.24978125,49.9395921875,27.58758125,49.9864921875,31.75008125,49.0079921875C35.52078125,48.1610921875,39.00698125,46.3493921875,41.86728125,43.7501921875C44.84418125,40.9622921875,47.00478125,37.4160921875,48.11728125,33.4923921875C49.32628125,29.2254921875,49.54148125,24.7381921875,48.74618125,20.3751921875L25.49608125,20.3751921875L25.49608125,30.0196921875L38.96098125,30.0196921875C38.69188125,31.5578921875,38.11518125,33.0260921875,37.26548125,34.3361921875C36.41578125,35.6463921875,35.31038125,36.7716921875,34.01568125,37.6446921875C32.37148125,38.7322921875,30.51798125,39.4641921875,28.57428125,39.7930921875C26.62488125,40.1555921875,24.62528125,40.1555921875,22.67578125,39.7930921875C20.69998125,39.3844921875,18.83088125,38.5691921875,17.18758125,37.3985921875C14.54748125,35.5297921875,12.56518125,32.8748921875,11.52348125,29.8126921875C10.46418125,26.6930921875,10.46418125,23.3110921875,11.52348125,20.1915921875C12.26498125,18.0048921875,13.49078125,16.0139921875,15.10938125,14.3673921875C16.96178125,12.4483921875,19.30688125,11.0766921875,21.88738125,10.4027921875C24.46788125,9.7288821875,27.18428125,9.7788021875,29.73828125,10.5470921875C31.73348125,11.1594921875,33.55808125,12.2295921875,35.06648125,13.6720921875C36.58468125,12.1615921875,38.10028125,10.6472921875,39.61338125,9.1290721875C40.39458125,8.3126721875,41.24618125,7.5353221875,42.01568125,6.6993821875C39.71338125,4.5566921875,37.01058125,2.8894421875,34.06258125,1.7931321875C28.69418125,-0.1561288125,22.82028125,-0.2085138125,17.41798125,1.6446921875Z" fill="#FFFFFF" fill-opacity="1"/></g><g><path d="M17.417975,1.6446390625C22.819775,-0.2098279375,28.693775,-0.15882293749999998,34.062475,1.7891690625C37.010975,2.8929290625,39.712575,4.5682090625,42.011775,6.7188690625C41.230575,7.5548090625,40.406375,8.3360590625,39.609475,9.1485590625C38.093775,10.6615390625,36.579475,12.1693390625,35.066375,13.6720390625C33.557975,12.2295390625,31.733475,11.1594390625,29.738275,10.5470390625C27.185075,9.7760590625,24.468875,9.7232490625,21.887575,10.3944390625C19.306375,11.0655390625,16.959775,12.4347390625,15.105475,14.3516390625C13.486875,15.9982390625,12.261025,17.9892390625,11.519545,20.1759390625L3.421875,13.9063390625C6.320325,8.1585590625,11.338875,3.7619190625,17.417975,1.6446390625Z" fill="#E33629" fill-opacity="1"/></g><g><path d="M1.2734255,20.11719C1.7086645,17.96012,2.4312525000000003,15.87117,3.4218625,13.90625L11.5195625,20.19141C10.4601825,23.310940000000002,10.4601825,26.69295,11.5195625,29.81245C8.8215925,31.89585,6.1223725,33.98955,3.4218625,36.09375C0.9419845,31.15745,0.18566349999999998,25.533250000000002,1.2734255,20.11719Z" fill="#F8BD00" fill-opacity="1"/></g><g><path d="M25.495878105,20.37109375L48.745840625,20.37109375C49.541140625,24.73414375,49.325940625,29.221363750000002,48.116940625,33.48829375C47.004440625,37.41199375,44.843840625,40.95819375,41.866940625,43.74609375C39.253640625,41.706993749999995,36.628740625,39.68359375,34.015410625,37.644493749999995C35.310990625,36.77059375,36.416840625,35.644093749999996,37.266640625,34.33249375C38.116340625,33.02099375,38.692640624999996,31.551393750000003,38.960740625,30.01171375L25.495878105,30.01171375C25.491971015,26.80078375,25.495878105,23.58593375,25.495878105,20.37109375Z" fill="#587DBD" fill-opacity="1"/></g><g><path d="M3.41796875,36.09375C6.1184787499999995,34.01043,8.81769875,31.91668,11.51562875,29.8125C12.55941875,32.87578,14.54456875,35.53086,17.18746875,37.39844C18.83596875,38.56356,20.70906875,39.372299999999996,22.68746875,39.77348C24.63696875,40.135999999999996,26.63646875,40.135999999999996,28.58596875,39.77348C30.52966875,39.44457,32.383168749999996,38.71262,34.02736875,37.625C36.64066875,39.6641,39.26566875,41.6875,41.87886875,43.7266C39.01906875,46.327,35.53286875,48.140299999999996,31.76176875,48.988299999999995C27.59926875,49.9668,23.26136875,49.92,19.12106875,48.851600000000005C15.84646875,47.9774,12.78780875,46.436,10.13671875,44.3243C7.33069875,42.0965,5.03890875,39.2891,3.41796875,36.09375Z" fill="#319F43" fill-opacity="1"/></g></g></svg>