<svg xmlns="http://www.w3.org/2000/svg" xmlns:xlink="http://www.w3.org/1999/xlink" fill="none" version="1.1" width="28" height="28" viewBox="0 0 28 28"><defs><clipPath id="master_svg0_72_1514"><rect x="0" y="0" width="28" height="28" rx="0"/></clipPath></defs><g clip-path="url(#master_svg0_72_1514)"><g><path d="M22.936627450561524,4.654996822128296C19.856627450561522,2.5549998221282957,16.053327450561525,3.534999722128296,14.000027450561523,5.938336822128296C11.946667450561524,3.535000022128296,8.143337450561523,2.543332822128296,5.063337450561523,4.654996822128296C3.4299974505615234,5.774996822128296,2.4033334505615236,7.664996822128296,2.3333335505615236,9.659996822128296C2.1700004505615236,14.186636822128296,6.183337450561524,17.815036822128295,12.308327450561523,23.380036822128297L12.425027450561524,23.485036822128297C13.311627450561524,24.290036822128297,14.676627450561524,24.290036822128297,15.563327450561523,23.473336822128296L15.691627450561523,23.356636822128294C21.816627450561523,17.803336822128294,25.818327450561522,14.175036822128297,25.666627450561524,9.648336822128297C25.596627450561524,7.664996822128296,24.570027450561522,5.774996822128296,22.936627450561524,4.654996822128296ZM14.116627450561523,21.641636822128294L14.000027450561523,21.758336822128296L13.883327450561524,21.641636822128294C8.329997450561525,16.613336822128296,4.6666674505615235,13.288336822128295,4.6666674505615235,9.916666822128295C4.6666674505615235,7.583336822128296,6.4166674505615235,5.833336822128295,8.749997450561523,5.833336822128295C10.546667450561523,5.833336822128295,12.296667450561523,6.988336822128296,12.915027450561523,8.586666822128297L15.096627450561524,8.586666822128297C15.703327450561524,6.988336822128296,17.453327450561524,5.833336822128295,19.250027450561525,5.833336822128295C21.583327450561523,5.833336822128295,23.333327450561523,7.583336822128296,23.333327450561523,9.916666822128295C23.333327450561523,13.288336822128295,19.670027450561523,16.613336822128296,14.116627450561523,21.641636822128294Z" fill="#FF2F2F" fill-opacity="1"/></g></g></svg>