<svg xmlns="http://www.w3.org/2000/svg" xmlns:xlink="http://www.w3.org/1999/xlink" fill="none" version="1.1" width="45" height="45" viewBox="0 0 45 45"><defs><clipPath id="master_svg0_16_2320"><rect x="0" y="0" width="45" height="45" rx="0"/></clipPath></defs><g clip-path="url(#master_svg0_16_2320)"><g><path d="M18.75,7.5C27.0188,7.5,33.75,14.2312,33.75,22.5C33.75,30.7687,27.0188,37.5,18.75,37.5C18.1125,37.5,17.475,37.4625,16.85625,37.3687C20.4375,33.318799999999996,22.5,28.0312,22.5,22.5C22.5,16.9688,20.4375,11.68125,16.85625,7.63125C17.475,7.5375,18.1125,7.5,18.75,7.5ZM18.75,3.75C15.3375,3.75,12.13125,4.6875,9.375,6.28125C14.98125,9.525,18.75,15.5625,18.75,22.5C18.75,29.4375,14.98125,35.475,9.375,38.7187C12.13125,40.3125,15.3375,41.25,18.75,41.25C29.1,41.25,37.5,32.85,37.5,22.5C37.5,12.15,29.1,3.75,18.75,3.75Z" fill="#FCFCFC" fill-opacity="1"/></g></g></svg>